<?xml version="1.0" encoding="UTF-8" standalone="no"?><!DOCTYPE svg PUBLIC "-//W3C//DTD SVG 1.1//EN" "http://www.w3.org/Graphics/SVG/1.1/DTD/svg11.dtd"><svg width="100%" height="100%" viewBox="0 0 533 443" version="1.1" xmlns="http://www.w3.org/2000/svg" xmlns:xlink="http://www.w3.org/1999/xlink" xml:space="preserve" xmlns:serif="http://www.serif.com/" style="fill-rule:evenodd;clip-rule:evenodd;stroke-linejoin:round;stroke-miterlimit:2;"><g><path d="M177.901,266.876c-48.877,-0 -88.5,39.623 -88.5,88.5l88.5,0l0,-88.5Z" style="fill:#719976;"/><path d="M443.034,-0c-48.877,-0 -88.5,39.623 -88.5,88.5l88.5,0l0,-88.5Z" style="fill:#719976;"/><path d="M177.6,178.157c48.877,0 88.5,39.623 88.5,88.501l-88.5,-0l-0,-88.501Z" style="fill:#719976;"/><path d="M177.6,442.8c48.877,0 88.5,-39.623 88.5,-88.5l-88.5,-0l-0,88.5Z" style="fill:#719976;"/><path d="M266.1,442.8c48.877,0 88.5,-39.623 88.5,-88.5l-88.5,-0l-0,88.5Z" style="fill:#719976;"/><path d="M443.7,266.876c48.877,-0 88.5,-39.623 88.5,-88.501l-88.5,0l-0,88.501Z" style="fill:#719976;"/><path d="M88.5,266.876c-48.877,-0 -88.5,-39.623 -88.5,-88.501l88.5,0l0,88.501Z" style="fill:#719976;"/><path d="M354.534,178.157c48.877,0 88.5,39.623 88.5,88.501c0,48.877 -39.623,88.5 -88.5,88.5l-0,-177.001Z" style="fill:#719976;"/><path d="M-0,355.376c48.877,0 88.5,-39.623 88.5,-88.5l-88.5,-0l-0,88.5Z" style="fill:#719976;"/></g><g><path d="M89.401,355.376c-48.878,0 -88.501,39.623 -88.501,88.5l88.501,0l-0,-88.5Z" style="fill:#93b197;"/><path d="M177.6,88.5c48.877,0 88.5,39.623 88.5,88.501l-88.5,-0l-0,-88.501Z" style="fill:#93b197;"/><path d="M88.5,89.439c-48.877,-0 -88.5,-39.623 -88.5,-88.501l88.5,0l0,88.501Z" style="fill:#93b197;"/><path d="M266.1,89.439c-48.877,-0 -88.5,-39.623 -88.5,-88.501l88.5,0l0,88.501Z" style="fill:#93b197;"/><path d="M443.7,443.876c-48.878,0 -88.501,-39.623 -88.501,-88.5l88.501,0l-0,88.5Z" style="fill:#93b197;"/><path d="M266.1,355.376c-48.877,0 -88.5,-39.623 -88.5,-88.5l88.5,-0l0,88.5Z" style="fill:#93b197;"/></g><g><path d="M443.7,89.875c-48.878,0 -88.501,39.623 -88.501,88.5l88.501,0l-0,-88.5Z" style="fill:#aec3b1;"/><path d="M266.1,355.376c48.877,0 88.5,-39.623 88.5,-88.5l-88.5,-0l-0,88.5Z" style="fill:#aec3b1;"/><path d="M88.5,178.157c-48.877,0 -88.5,-39.623 -88.5,-88.5l88.5,-0l0,88.5Z" style="fill:#aec3b1;"/><path d="M354.6,89.439c-48.877,-0 -88.5,-39.623 -88.5,-88.501l88.5,0l0,88.501Z" style="fill:#aec3b1;"/><path d="M532.2,442.8c-48.877,0 -88.5,-39.623 -88.5,-88.5l88.5,-0l-0,88.5Z" style="fill:#aec3b1;"/><path d="M354.534,89.875c-48.878,0 -88.501,39.623 -88.501,88.5c0,48.878 39.623,88.501 88.501,88.501l-0,-177.001Z" style="fill:#aec3b1;"/></g><g><path d="M89.099,-0c48.878,-0 88.501,39.623 88.501,88.5l-88.501,0l0,-88.5Z" style="fill:#426a47;"/><path d="M443.7,89.875c48.877,0 88.5,39.623 88.5,88.5l-88.5,0l-0,-88.5Z" style="fill:#426a47;"/><path d="M443.034,266.658c48.877,-0 88.5,39.622 88.5,88.5l-88.5,-0l0,-88.5Z" style="fill:#426a47;"/><path d="M89.099,355.158c48.878,-0 88.501,39.623 88.501,88.5l-88.501,0l0,-88.5Z" style="fill:#426a47;"/><path d="M532.2,89.439c-48.877,-0 -88.5,-39.623 -88.5,-88.501l88.5,0l-0,88.501Z" style="fill:#426a47;"/><path d="M89.401,89.657c48.877,-0 88.5,39.623 88.5,88.5c0,48.878 -39.623,88.501 -88.5,88.501l-0,-177.001Z" style="fill:#426a47;"/></g></svg>