<?xml version="1.0" encoding="UTF-8" standalone="no"?><!DOCTYPE svg PUBLIC "-//W3C//DTD SVG 1.1//EN" "http://www.w3.org/Graphics/SVG/1.1/DTD/svg11.dtd"><svg width="100%" height="100%" viewBox="0 0 512 250" version="1.1" xmlns="http://www.w3.org/2000/svg" xmlns:xlink="http://www.w3.org/1999/xlink" xml:space="preserve" xmlns:serif="http://www.serif.com/" style="fill-rule:evenodd;clip-rule:evenodd;stroke-linejoin:round;stroke-miterlimit:2;"><g><g><path d="M10.634,164.193l21.955,-0c0.136,6.37 2.575,11.654 7.319,15.857c4.743,4.201 11.112,6.301 19.108,6.301c4.472,0 8.81,-1.084 13.011,-3.252c4.201,-2.168 7.623,-5.49 10.266,-9.962c2.642,-4.472 3.964,-10.231 3.964,-17.279l-0,-14.23c-7.183,11.52 -17.822,17.279 -31.915,17.279c-8.133,-0 -15.654,-1.897 -22.565,-5.692c-6.913,-3.795 -12.468,-9.283 -16.67,-16.466c-4.202,-7.182 -6.302,-15.924 -6.302,-26.223c-0,-10.165 2.1,-18.839 6.302,-26.021c4.202,-7.183 9.757,-12.672 16.67,-16.466c6.911,-3.795 14.432,-5.692 22.565,-5.692c14.093,0 24.732,5.76 31.915,17.28l-0,-15.248l21.547,0l0,91.479c0,11.249 -2.269,20.532 -6.809,27.85c-4.54,7.318 -10.47,12.773 -17.787,16.364c-7.319,3.593 -15.247,5.388 -23.784,5.388c-15.179,-0 -27.004,-3.828 -35.474,-11.486c-8.471,-7.657 -12.909,-17.584 -13.316,-29.781Zm20.939,-53.667c0,9.487 2.778,16.737 8.335,21.751c5.557,5.015 12.129,7.521 19.718,7.521c4.337,0 8.538,-1.117 12.604,-3.354c4.065,-2.236 7.42,-5.523 10.063,-9.859c2.642,-4.337 3.964,-9.69 3.964,-16.059c-0,-6.234 -1.322,-11.52 -3.964,-15.857c-2.643,-4.336 -5.998,-7.623 -10.063,-9.859c-4.066,-2.236 -8.267,-3.354 -12.604,-3.354c-7.589,-0 -14.161,2.507 -19.718,7.521c-5.557,5.015 -8.335,12.197 -8.335,21.549Z" style="fill:#434343;fill-rule:nonzero;"/><path d="M184.647,87.757c-2.033,-1.625 -3.93,-2.846 -5.692,-3.658c-1.762,-0.814 -3.999,-1.22 -6.709,-1.22c-5.42,0 -9.35,2.066 -11.79,6.2c-2.44,4.134 -3.66,9.52 -3.66,16.161l0,52.651l-21.751,-0l0,-93.512l21.751,0l0,11.181c2.847,-4.066 6.133,-7.318 9.86,-9.757c3.726,-2.44 7.556,-3.659 11.486,-3.659c3.387,-0 6.572,0.575 9.554,1.727c2.981,1.152 5.557,2.949 7.725,5.388l-10.774,18.498Z" style="fill:#434343;fill-rule:nonzero;"/><path d="M200.3,111.136c0,-9.623 2.203,-18.093 6.606,-25.412c4.405,-7.317 10.402,-13.043 17.991,-17.177c7.59,-4.133 16.196,-6.2 25.817,-6.2c9.487,0 18.06,2.067 25.716,6.2c7.657,4.134 13.688,9.86 18.092,17.177c4.405,7.319 6.608,15.789 6.608,25.412c-0,9.621 -2.203,18.092 -6.608,25.41c-4.404,7.319 -10.435,13.045 -18.092,17.177c-7.656,4.134 -16.229,6.201 -25.716,6.201c-9.621,0 -18.227,-2.067 -25.817,-6.201c-7.589,-4.132 -13.586,-9.858 -17.991,-17.177c-4.403,-7.318 -6.606,-15.789 -6.606,-25.41Zm22.565,-0c0,8.673 2.676,15.754 8.029,21.243c5.353,5.488 11.961,8.233 19.82,8.233c7.861,-0 14.467,-2.745 19.82,-8.233c5.354,-5.489 8.031,-12.57 8.031,-21.243c-0,-8.81 -2.677,-15.925 -8.031,-21.345c-5.353,-5.421 -11.959,-8.133 -19.82,-8.133c-7.859,0 -14.467,2.712 -19.82,8.133c-5.353,5.42 -8.029,12.535 -8.029,21.345Z" style="fill:#434343;fill-rule:nonzero;"/><path d="M336.705,111.136c-0,8.808 2.778,15.991 8.335,21.547c5.555,5.557 12.468,8.335 20.734,8.335c6.776,0 12.977,-1.524 18.601,-4.574c5.623,-3.049 9.588,-6.81 11.892,-11.282l-0,24.191c-3.253,3.389 -7.657,5.997 -13.213,7.826c-5.557,1.83 -11.656,2.745 -18.296,2.745c-9.622,0 -18.262,-2.067 -25.919,-6.201c-7.657,-4.132 -13.688,-9.858 -18.093,-17.177c-4.404,-7.318 -6.606,-15.789 -6.606,-25.41c0,-9.623 2.202,-18.093 6.606,-25.412c4.405,-7.317 10.436,-13.043 18.093,-17.177c7.657,-4.133 16.297,-6.2 25.919,-6.2c6.64,0 12.739,0.949 18.296,2.846c5.556,1.897 9.96,4.404 13.213,7.521l-0,24.394c-2.304,-4.607 -6.336,-8.402 -12.095,-11.384c-5.761,-2.981 -11.893,-4.472 -18.398,-4.472c-5.421,0 -10.334,1.287 -14.738,3.863c-4.404,2.575 -7.895,6.132 -10.469,10.673c-2.575,4.54 -3.862,9.656 -3.862,15.348Z" style="fill:#434343;fill-rule:nonzero;"/><path d="M503.195,64.379l-60.985,138.234l-23.378,0l24.598,-55.7l-37.812,-82.534l25.207,0l24.598,60.783l24.19,-60.783l23.582,0Z" style="fill:#434343;fill-rule:nonzero;"/></g><g id="SVG"><g id="Orange"><g><path id="Fill-1" d="M301.464,122.197c-9.476,27.427 -39.392,41.978 -66.818,32.501c-27.425,-9.475 -41.974,-39.39 -32.497,-66.816c9.476,-27.425 36.702,-34.203 64.128,-24.726c27.426,9.476 44.664,31.616 35.187,59.041" style="fill:#f47c4a;"/><path id="Fill-3" d="M281.782,70.607c12.364,11.384 17.85,27.204 11.573,45.371c-9.475,27.423 -39.388,41.975 -66.813,32.5c-3.809,-1.316 -7.339,-3.059 -10.623,-5.104c5.229,4.902 11.519,8.832 18.729,11.324c27.426,9.475 57.339,-5.077 66.814,-32.499c7.52,-21.763 -1.816,-40.171 -19.68,-51.592" style="fill:#dd5b36;"/><path id="Fill-5" d="M265.223,66.211c-21.5,-7.428 -50.118,-5.932 -60.021,22.727c-8.879,25.696 4.805,53.829 30.502,62.707c25.696,8.88 53.826,-4.805 62.705,-30.502c9.903,-28.66 -11.688,-47.504 -33.186,-54.932m-31.63,91.542c-29.065,-10.041 -44.541,-41.864 -34.5,-70.926c9.287,-26.879 36.711,-37.619 68.241,-26.724c31.527,10.894 46.47,36.272 37.183,63.151c-10.042,29.062 -41.858,44.543 -70.924,34.499" style="fill:#434343;"/><path id="Fill-8" d="M254.864,96.191c-12.015,-4.151 -14.936,-12.148 -15.053,-12.491c-0.59,-1.679 0.298,-3.524 1.982,-4.114c1.684,-0.591 3.531,0.298 4.117,1.983c0.069,0.178 2.189,5.448 11.065,8.514c8.876,3.067 13.797,0.231 14.001,0.106c1.516,-0.905 3.496,-0.443 4.427,1.062c0.926,1.502 0.5,3.457 -0.987,4.407c-0.304,0.196 -7.539,4.684 -19.552,0.533" style="fill:#434343;"/><path id="Fill-10" d="M254.861,96.186c-1.304,-0.45 -2.218,-1.703 -2.171,-3.156c0.037,-1.065 1.138,-26.218 25.316,-37.162c1.626,-0.737 3.54,-0.016 4.277,1.61c0.734,1.628 0.014,3.54 -1.614,4.277c-20.449,9.256 -21.486,30.592 -21.518,31.497c-0.068,1.778 -1.565,3.172 -3.346,3.11c-0.331,-0.011 -0.648,-0.073 -0.944,-0.176" style="fill:#434343;"/><path id="Fill-12" d="M232.384,47.774c37.333,1.003 26.308,27.764 26.308,27.764c0,-0 -27.311,9.57 -26.308,-27.764" style="fill:#3bb777;"/><path id="Fill-14" d="M232.384,47.774l26.308,27.764c0,-0 -27.311,9.57 -26.308,-27.764" style="fill:#229857;"/><path id="Fill-16" d="M235.602,51.169c0.206,9.722 2.628,16.336 7.216,19.682c4.684,3.43 10.64,2.647 13.349,2.031c0.748,-2.681 1.847,-8.65 -1.324,-13.485c-3.106,-4.743 -9.571,-7.503 -19.241,-8.228m8.415,27.512c-1.696,-0.586 -3.392,-1.429 -5.007,-2.609c-6.911,-5.041 -10.23,-14.59 -9.856,-28.386c0.023,-0.857 0.386,-1.672 1.006,-2.257c0.623,-0.589 1.455,-0.909 2.309,-0.888c13.795,0.377 23.154,4.199 27.819,11.369c6.042,9.294 1.587,20.388 1.392,20.86c-0.351,0.85 -1.047,1.508 -1.919,1.815c-0.391,0.135 -8.061,2.75 -15.744,0.096" style="fill:#434343;"/><path id="Fill-18" d="M239.626,104.48c-12.067,-4.169 -15.488,-14.985 -15.632,-15.458c-0.389,-1.28 0.333,-2.634 1.612,-3.023c1.276,-0.39 2.625,0.326 3.022,1.602c0.121,0.383 3.096,9.422 13.506,12.598c1.334,0.286 2.014,1.731 1.632,3.015c-0.381,1.28 -1.731,2.014 -3.011,1.629c-0.384,-0.112 -0.762,-0.235 -1.129,-0.363" style="fill:#ffb596;"/><path id="Fill-20" d="M227.537,77.777c0.893,1.505 0.397,3.45 -1.11,4.341c-1.506,0.895 -3.45,0.397 -4.342,-1.108c-0.891,-1.504 -0.397,-3.45 1.111,-4.343c1.505,-0.893 3.449,-0.395 4.341,1.11" style="fill:#ffb596;"/></g></g></g></g></svg>