<?xml version="1.0" encoding="UTF-8" standalone="no"?><!DOCTYPE svg PUBLIC "-//W3C//DTD SVG 1.1//EN" "http://www.w3.org/Graphics/SVG/1.1/DTD/svg11.dtd"><svg width="100%" height="100%" viewBox="0 0 280 280" version="1.1" xmlns="http://www.w3.org/2000/svg" xmlns:xlink="http://www.w3.org/1999/xlink" xml:space="preserve" xmlns:serif="http://www.serif.com/" style="fill-rule:evenodd;clip-rule:evenodd;stroke-linejoin:round;stroke-miterlimit:2;"><g id="Orange"><g><path id="Fill-1" d="M259.987,187.005c-22.82,66.045 -94.859,101.085 -160.904,78.265c-66.043,-22.818 -101.077,-94.856 -78.256,-160.899c22.82,-66.042 88.381,-82.364 154.427,-59.543c66.042,22.82 107.554,76.134 84.733,142.177" style="fill:#f47c4a;"/><path id="Fill-3" d="M212.59,62.771c29.773,27.413 42.986,65.509 27.869,109.258c-22.817,66.036 -94.85,101.079 -160.892,78.262c-9.172,-3.17 -17.673,-7.367 -25.58,-12.29c12.591,11.803 27.738,21.266 45.102,27.269c66.042,22.817 138.075,-12.226 160.892,-78.262c18.109,-52.407 -4.372,-96.736 -47.391,-124.237" style="fill:#dd5b36;"/><path id="Fill-5" d="M172.715,52.185c-51.775,-17.888 -120.69,-14.285 -144.537,54.728c-21.379,61.879 11.573,129.626 73.452,151.005c61.879,21.383 129.617,-11.572 151,-73.452c23.847,-69.016 -28.146,-114.393 -79.915,-132.281m-76.168,220.442c-69.991,-24.181 -107.259,-100.812 -83.078,-170.797c22.364,-64.728 88.403,-90.589 164.329,-64.354c75.92,26.233 111.904,87.346 89.541,152.073c-24.182,69.985 -100.798,107.263 -170.792,83.078" style="fill:#fff;"/><path id="Fill-8" d="M147.771,124.38c-28.934,-9.997 -35.969,-29.255 -36.251,-30.079c-1.42,-4.044 0.717,-8.486 4.773,-9.908c4.056,-1.423 8.504,0.717 9.914,4.776c0.166,0.429 5.273,13.118 26.646,20.503c21.374,7.385 33.225,0.554 33.716,0.254c3.651,-2.18 8.418,-1.067 10.659,2.557c2.232,3.617 1.205,8.326 -2.376,10.613c-0.732,0.472 -18.154,11.278 -47.081,1.284" style="fill:#fff;"/><path id="Fill-10" d="M147.761,124.368c-3.139,-1.085 -5.34,-4.102 -5.227,-7.6c0.089,-2.565 2.741,-63.136 60.963,-89.491c3.915,-1.775 8.526,-0.037 10.301,3.878c1.765,3.921 0.033,8.526 -3.888,10.301c-49.242,22.287 -51.741,73.666 -51.818,75.846c-0.162,4.283 -3.767,7.639 -8.056,7.489c-0.797,-0.027 -1.56,-0.175 -2.275,-0.423" style="fill:#fff;"/><path id="Fill-12" d="M93.635,7.786c89.902,2.416 63.354,66.858 63.354,66.858c-0,-0 -65.77,23.047 -63.354,-66.858" style="fill:#3bb777;"/><path id="Fill-14" d="M93.635,7.786l63.354,66.858c-0,-0 -65.77,23.047 -63.354,-66.858" style="fill:#229857;"/><path id="Fill-16" d="M101.385,15.962c0.496,23.412 6.327,39.338 17.376,47.397c11.281,8.259 25.622,6.374 32.146,4.89c1.802,-6.456 4.448,-20.831 -3.189,-32.474c-7.48,-11.419 -23.047,-18.066 -46.333,-19.813m20.263,66.251c-4.083,-1.41 -8.166,-3.44 -12.057,-6.282c-16.643,-12.139 -24.635,-35.134 -23.733,-68.356c0.055,-2.064 0.928,-4.026 2.421,-5.436c1.502,-1.416 3.504,-2.189 5.561,-2.137c33.219,0.908 55.758,10.111 66.99,27.376c14.549,22.382 3.823,49.096 3.354,50.233c-0.846,2.048 -2.523,3.633 -4.623,4.372c-0.941,0.325 -19.412,6.622 -37.913,0.23" style="fill:#fff;"/><path id="Fill-18" d="M111.075,144.341c-29.059,-10.04 -37.296,-36.086 -37.642,-37.226c-0.938,-3.081 0.8,-6.343 3.881,-7.278c3.071,-0.941 6.321,0.785 7.277,3.857c0.292,0.922 7.456,22.688 32.523,30.337c3.213,0.69 4.85,4.169 3.931,7.259c-0.917,3.084 -4.17,4.85 -7.251,3.924c-0.925,-0.27 -1.836,-0.567 -2.719,-0.873" style="fill:#ffb596;"/><path id="Fill-20" d="M81.964,80.036c2.149,3.624 0.957,8.308 -2.673,10.454c-3.627,2.155 -8.308,0.957 -10.457,-2.667c-2.146,-3.624 -0.956,-8.308 2.676,-10.46c3.624,-2.149 8.305,-0.95 10.454,2.673" style="fill:#ffb596;"/></g></g></svg>