<?xml version="1.0" encoding="UTF-8" standalone="no"?><!DOCTYPE svg PUBLIC "-//W3C//DTD SVG 1.1//EN" "http://www.w3.org/Graphics/SVG/1.1/DTD/svg11.dtd"><svg width="100%" height="100%" viewBox="0 0 512 512" version="1.1" xmlns="http://www.w3.org/2000/svg" xmlns:xlink="http://www.w3.org/1999/xlink" xml:space="preserve" xmlns:serif="http://www.serif.com/" style="fill-rule:evenodd;clip-rule:evenodd;stroke-linecap:round;stroke-linejoin:round;stroke-miterlimit:1;"><text x="133.07px" y="320.253px" style="font-family:'Vollkorn-Medium', 'Vollkorn';font-weight:500;font-size:159.684px;fill:#fff;">frigo<tspan x="478.786px " y="320.253px ">.</tspan></text><g><path d="M83.809,160.775l17.767,23.134l-28.178,-9.349l10.411,-13.785Z" style="fill:#fff;stroke:#fff;stroke-width:1px;"/><path d="M83.809,160.714l17.767,23.135l-17.767,-23.135Z" style="stroke:#fff;stroke-width:3.5px;"/><rect x="20.171" y="146.986" width="63.638" height="13.789" style="fill:none;stroke:#fff;stroke-width:3.5px;"/><rect x="2.59" y="183.909" width="63.452" height="135.064" style="fill:none;stroke:#fff;stroke-width:3.5px;stroke-linejoin:miter;"/><rect x="2.59" y="183.909" width="63.452" height="135.064" style="fill:none;stroke:#fff;stroke-width:3.5px;"/><rect x="66.043" y="183.909" width="35.533" height="135.064" style="fill:none;stroke:#fff;stroke-width:3.5px;"/><path d="M83.809,160.775l-63.452,-0l-17.767,23.134l63.453,0l17.766,-23.134Z" style="fill:none;stroke:#fff;stroke-width:3.5px;"/><path d="M27.576,160.714l0,-8.205" style="fill:none;stroke:#fff;stroke-width:3.5px;"/><path d="M35.813,160.714l-0,-8.205" style="fill:none;stroke:#fff;stroke-width:3.5px;"/><path d="M44.049,160.714l-0,-8.205" style="fill:none;stroke:#fff;stroke-width:3.5px;"/><path d="M52.285,160.714l0,-8.205" style="fill:none;stroke:#fff;stroke-width:3.5px;"/><path d="M60.522,160.714l-0,-8.205" style="fill:none;stroke:#fff;stroke-width:3.5px;"/><path d="M68.758,160.714l-0,-8.205" style="fill:none;stroke:#fff;stroke-width:3.5px;"/><path d="M76.994,160.714l0,-8.205" style="fill:none;stroke:#fff;stroke-width:3.5px;"/></g></svg>